<svg width="18" height="18" viewBox="0 0 18 18" fill="none" xmlns="http://www.w3.org/2000/svg">
<path fill-rule="evenodd" clip-rule="evenodd" d="M10.2084 1.87516C10.2084 1.50697 10.5069 1.2085 10.875 1.2085H13.875C14.4497 1.2085 15.0008 1.43677 15.4071 1.8431C15.8134 2.24943 16.0417 2.80053 16.0417 3.37516V13.8752C16.0417 14.4498 15.8134 15.0009 15.4071 15.4072C15.0008 15.8136 14.4497 16.0418 13.875 16.0418H10.875C10.5069 16.0418 10.2084 15.7434 10.2084 15.3752C10.2084 15.007 10.5069 14.7085 10.875 14.7085H13.875C14.0961 14.7085 14.308 14.6207 14.4643 14.4644C14.6206 14.3081 14.7084 14.0962 14.7084 13.8752V3.37516C14.7084 3.15415 14.6206 2.94219 14.4643 2.78591C14.308 2.62963 14.0961 2.54183 13.875 2.54183H10.875C10.5069 2.54183 10.2084 2.24335 10.2084 1.87516ZM6.65359 4.40376C6.91394 4.14341 7.33605 4.14341 7.5964 4.40376L11.3418 8.14919C11.4652 8.27018 11.5417 8.43874 11.5417 8.62516C11.5417 8.8116 11.4652 8.98016 11.3418 9.10115L7.5964 12.8466C7.33605 13.1069 6.91394 13.1069 6.65359 12.8466C6.39324 12.5862 6.39324 12.1641 6.65359 11.9038L9.26552 9.29183H1.87504C1.50685 9.29183 1.20837 8.99335 1.20837 8.62516C1.20837 8.25697 1.50685 7.9585 1.87504 7.9585H9.26552L6.65359 5.34657C6.39324 5.08622 6.39324 4.66411 6.65359 4.40376Z" fill="#2D3440"/>
</svg>
