<svg width="48" height="36" viewBox="0 0 48 36" fill="none" xmlns="http://www.w3.org/2000/svg">
<circle opacity="0.3" cx="24" cy="18" r="16" fill="#FCFCFC"/>
<path fill-rule="evenodd" clip-rule="evenodd" d="M17.9129 17.2463C17.9129 14.3007 20.3007 11.9129 23.2462 11.9129C26.1917 11.9129 28.5795 14.3007 28.5795 17.2463C28.5795 18.6855 28.0095 19.9915 27.0828 20.951C27.0582 20.9695 27.0346 20.99 27.0123 21.0124C26.9899 21.0347 26.9694 21.0583 26.9509 21.0829C25.9915 22.0095 24.6854 22.5796 23.2462 22.5796C20.3007 22.5796 17.9129 20.1918 17.9129 17.2463ZM27.4653 22.4082C26.3161 23.3487 24.847 23.9129 23.2462 23.9129C19.5643 23.9129 16.5795 20.9282 16.5795 17.2463C16.5795 13.5644 19.5643 10.5796 23.2462 10.5796C26.9281 10.5796 29.9129 13.5644 29.9129 17.2463C29.9129 18.8471 29.3486 20.3162 28.4081 21.4654L31.2176 24.2749C31.4779 24.5352 31.4779 24.9573 31.2176 25.2177C30.9572 25.478 30.5351 25.478 30.2748 25.2177L27.4653 22.4082Z" fill="#2D3440"/>
</svg>
